<svg width="640" height="520" viewBox="0 0 640 520" fill="none" xmlns="http://www.w3.org/2000/svg">
  <rect width="640" height="520" rx="28" fill="#F8FBFF"/>
  <rect x="26" y="26" width="588" height="404" rx="24" fill="#FFFFFF" stroke="#D9E4F2" stroke-width="2"/>

  <defs>
    <filter id="shadow" x="0" y="0" width="200%" height="200%">
      <feDropShadow dx="0" dy="10" stdDeviation="12" flood-color="#94A3B8" flood-opacity="0.16"/>
    </filter>
  </defs>

  <g filter="url(#shadow)">
    <image
      href="https://cdn.rcsb.org/images/structures/ig/1igt/1igt_assembly-1.jpeg"
      x="88"
      y="42"
      width="468"
      height="340"
      preserveAspectRatio="xMidYMid meet"
    />
  </g>

  <g stroke="#0F172A" stroke-width="2.2" stroke-linecap="round" stroke-linejoin="round">
    <path d="M146 118 C120 94, 98 86, 74 78" />
    <path d="M486 116 C520 94, 544 88, 566 80" />
    <path d="M324 226 C356 234, 390 256, 414 280" />
  </g>

  <g fill="#FFFFFF" stroke="#BFDBFE" stroke-width="1.5">
    <rect x="28" y="50" width="116" height="36" rx="14"/>
    <rect x="492" y="52" width="120" height="36" rx="14"/>
    <rect x="412" y="278" width="112" height="36" rx="14"/>
  </g>

  <g fill="#0F172A" font-family="Arial, sans-serif" font-size="22" font-weight="700">
    <text x="46" y="74">Fab arm</text>
    <text x="512" y="76">Fab arm</text>
    <text x="444" y="302">Fc region</text>
  </g>

  <g fill="#FFFFFF" stroke="#BFDBFE" stroke-width="1.5">
    <rect x="248" y="170" width="100" height="34" rx="14"/>
  </g>
  <g fill="#0F172A" font-family="Arial, sans-serif" font-size="20" font-weight="700">
    <text x="272" y="193">hinge</text>
  </g>

  <g stroke="#0F172A" stroke-width="2.2" stroke-linecap="round">
    <path d="M286 204 C288 222, 288 234, 287 246" />
  </g>

  <text x="320" y="468" text-anchor="middle" fill="#64748B" font-family="Arial, sans-serif" font-size="18">
    labeled IgG structure image based on RCSB PDB entry 1IGT
  </text>
</svg>
